<svg width="16" height="16" viewBox="0 0 16 16" fill="none" xmlns="http://www.w3.org/2000/svg">
<path d="M9.2819 14H6.7155C3.62854 14 2.08507 14 1.51627 12.9959C0.947481 11.9919 1.73694 10.6609 3.31586 7.999L4.59908 5.83555C6.11576 3.27852 6.8741 2 7.9987 2C9.1233 2 9.88163 3.27851 11.3983 5.83555L12.6816 7.999C14.2604 10.6609 15.0499 11.9919 14.4811 12.9959C13.9123 14 12.3688 14 9.2819 14Z" stroke="white" stroke-width="1.5" stroke-linecap="round" stroke-linejoin="round"/>
<path d="M8 11.3327V8.66602" stroke="white" stroke-width="1.5" stroke-linecap="round" stroke-linejoin="round"/>
<path d="M7.9987 6.16667H8.08203M8.16536 6.16667C8.16536 6.07462 8.09076 6 7.9987 6C7.90663 6 7.83203 6.07462 7.83203 6.16667C7.83203 6.25871 7.90663 6.33333 7.9987 6.33333C8.09076 6.33333 8.16536 6.25871 8.16536 6.16667Z" stroke="white" stroke-width="1.5" stroke-linecap="round" stroke-linejoin="round"/>
</svg>
