<svg width="20" height="20" viewBox="0 0 20 20" fill="none" xmlns="http://www.w3.org/2000/svg">
<path d="M11.6122 2.5H8.38256C6.74304 2.5 5.92328 2.5 5.2884 2.92983C4.65353 3.35967 4.34908 4.12079 3.74018 5.64305L2.02168 9.93933C1.84341 10.3849 1.75428 10.6077 1.70917 10.842C1.66406 11.0762 1.66406 11.3163 1.66406 11.7963V12.5C1.66406 14.857 1.66406 16.0355 2.3963 16.7677C3.12853 17.5 4.30704 17.5 6.66406 17.5H13.3307C15.6877 17.5 16.8662 17.5 17.5985 16.7677C18.3307 16.0355 18.3307 14.857 18.3307 12.5V11.7963C18.3307 11.3163 18.3307 11.0762 18.2856 10.842C18.2405 10.6078 18.1514 10.3849 17.9731 9.93925L16.2546 5.64305C15.6457 4.12079 15.3412 3.35967 14.7064 2.92983C14.0715 2.5 13.2517 2.5 11.6122 2.5Z" stroke="white" stroke-width="1.5" stroke-linecap="round" stroke-linejoin="round"/>
<path d="M2.08594 10.833H4.65743C5.13813 10.833 5.37848 10.833 5.60245 10.8968C5.7255 10.9319 5.84409 10.981 5.95589 11.0433C6.1594 11.1565 6.32936 11.3264 6.66927 11.6663C7.00918 12.0063 7.17914 12.1762 7.38265 12.2894C7.49445 12.3517 7.61305 12.4008 7.73609 12.4358C7.96006 12.4997 8.20041 12.4997 8.6811 12.4997H11.3241C11.8048 12.4997 12.0452 12.4997 12.2691 12.4358C12.3922 12.4008 12.5108 12.3517 12.6225 12.2894C12.8261 12.1762 12.996 12.0063 13.3359 11.6663C13.6759 11.3264 13.8458 11.1565 14.0494 11.0433C14.1611 10.981 14.2797 10.9319 14.4028 10.8968C14.6267 10.833 14.8671 10.833 15.3478 10.833H17.9193" stroke="white" stroke-width="1.5" stroke-linecap="round" stroke-linejoin="round"/>
</svg>
