<svg width="16" height="16" viewBox="0 0 16 16" fill="none" xmlns="http://www.w3.org/2000/svg">
<g clip-path="url(#clip0_11996_1160)">
<path d="M10.6654 12C10.6654 13.4727 9.47143 14.6667 7.9987 14.6667C6.52594 14.6667 5.33203 13.4727 5.33203 12" stroke="white" stroke-width="1.5" stroke-linecap="round" stroke-linejoin="round"/>
<path d="M2.95639 12.0007H13.0404C13.5256 12.0007 13.7682 12.0007 13.9086 11.9307C14.1814 11.7949 14.3273 11.4913 14.263 11.1933C14.2299 11.04 14.0783 10.8506 13.7752 10.4717L13.6621 10.3303C13.3582 9.95038 13.2062 9.76045 13.0776 9.56125C12.6778 8.94192 12.4305 8.23665 12.3558 7.50332C12.3317 7.26745 12.3317 7.02418 12.3317 6.53772V5.66732C12.3317 5.3578 12.3317 5.20304 12.3232 5.07237C12.1919 3.06934 10.5964 1.47383 8.59336 1.34255C8.4627 1.33398 8.3079 1.33398 7.99837 1.33398C7.6889 1.33398 7.5341 1.33398 7.40343 1.34255C5.40042 1.47383 3.80491 3.06934 3.67363 5.07237C3.66506 5.20304 3.66506 5.3578 3.66506 5.66732V6.53772C3.66506 7.02418 3.66506 7.26745 3.64102 7.50332C3.56632 8.23665 3.31893 8.94192 2.91915 9.56125C2.79056 9.76045 2.6386 9.95038 2.33471 10.3303L2.22155 10.4717C1.91846 10.8506 1.76692 11.04 1.73382 11.1933C1.66951 11.4913 1.81543 11.7949 2.08824 11.9307C2.22863 12.0007 2.47122 12.0007 2.95639 12.0007Z" stroke="white" stroke-width="1.5" stroke-linecap="round" stroke-linejoin="round"/>
</g>
<defs>
<clipPath id="clip0_11996_1160">
<rect width="16" height="16" fill="white"/>
</clipPath>
</defs>
</svg>
