<svg width="20" height="20" viewBox="0 0 20 20" fill="none" xmlns="http://www.w3.org/2000/svg">
<path d="M13.335 0.916016C13.749 0.916192 14.085 1.25191 14.085 1.66602V2.65918C14.2611 2.67417 14.4297 2.69123 14.5908 2.71289C15.5817 2.84611 16.403 3.12953 17.0537 3.78027C17.7044 4.431 17.9879 5.25229 18.1211 6.24316C18.1967 6.80519 18.2253 7.45772 18.2383 8.20898C18.2451 8.2497 18.25 8.29132 18.25 8.33398C18.25 8.36952 18.246 8.40426 18.2412 8.43848C18.2472 8.91984 18.25 9.43997 18.25 10.001V11.667C18.25 13.2171 18.2514 14.4555 18.1211 15.4248C17.9879 16.4157 17.7045 17.237 17.0537 17.8877C16.403 18.5384 15.5817 18.8219 14.5908 18.9551C13.6215 19.0854 12.3831 19.084 10.833 19.084H9.16699C7.61685 19.084 6.37849 19.0854 5.40918 18.9551C4.41831 18.8219 3.59702 18.5384 2.94629 17.8877C2.29554 17.237 2.01213 16.4157 1.87891 15.4248C1.74859 14.4555 1.75 13.2171 1.75 11.667V10.001C1.75 9.43997 1.75187 8.91983 1.75781 8.43848C1.75305 8.4043 1.75 8.36947 1.75 8.33398C1.75 8.29137 1.75392 8.24965 1.76074 8.20898C1.77368 7.45771 1.80334 6.80519 1.87891 6.24316C2.01213 5.25229 2.29556 4.43101 2.94629 3.78027C3.59702 3.12955 4.4183 2.84611 5.40918 2.71289C5.57116 2.69111 5.74076 2.67422 5.91797 2.65918V1.66602C5.91797 1.2518 6.25376 0.916016 6.66797 0.916016C7.08218 0.916016 7.41797 1.2518 7.41797 1.66602V2.59473C7.95075 2.58608 8.53275 2.58398 9.16699 2.58398H10.833C11.4684 2.58398 12.0514 2.58603 12.585 2.59473V1.66602C12.585 1.2518 12.9207 0.916016 13.335 0.916016ZM3.25 10.001V11.667C3.25 13.2593 3.25152 14.3785 3.36524 15.2246C3.47609 16.0492 3.68128 16.5016 4.00684 16.8271C4.33242 17.1527 4.78484 17.3579 5.60938 17.4688C6.45545 17.5825 7.57466 17.584 9.16699 17.584H10.833C12.4253 17.584 13.5445 17.5825 14.3906 17.4688C15.2152 17.3579 15.6676 17.1527 15.9932 16.8271C16.3187 16.5016 16.5239 16.0492 16.6348 15.2246C16.7485 14.3785 16.75 13.2593 16.75 11.667V10.001C16.75 9.67619 16.7491 9.3711 16.748 9.08398H3.25195C3.25089 9.3711 3.25 9.67619 3.25 10.001ZM9.56445 11.1953C9.80445 10.7139 10.1941 10.7139 10.4316 11.1953L10.8721 12.082C10.932 12.2054 11.0916 12.3239 11.2266 12.3467L12.0244 12.4805C12.534 12.5662 12.6541 12.9389 12.2871 13.3066L11.667 13.9326C11.5621 14.0385 11.5046 14.2426 11.5371 14.3887L11.7139 15.1621C11.8451 15.7362 11.5703 15.9803 11.0928 15.7451L10.9941 15.6914L10.2471 15.2451C10.1121 15.1645 9.88946 15.1645 9.75195 15.2451L9.44531 15.4277H9.44434L9.00488 15.6914C8.50354 15.9914 8.18623 15.7999 8.26367 15.2725L8.28418 15.1621L8.46191 14.3887C8.49431 14.2426 8.43694 14.0385 8.33203 13.9326L7.71191 13.3066C7.3474 12.9389 7.4649 12.5662 7.97461 12.4805L8.66113 12.3643L8.77246 12.3467C8.8716 12.3296 8.98608 12.259 9.0625 12.1729L9.125 12.082L9.56445 11.1953ZM9.87305 13.4541C9.85251 13.4694 9.82922 13.4825 9.80664 13.498C9.83449 13.5645 9.85705 13.6291 9.87598 13.6904C9.91872 13.6879 9.96007 13.6846 10 13.6846C10.0391 13.6846 10.08 13.688 10.1221 13.6904C10.1408 13.6296 10.1639 13.5659 10.1914 13.5C10.1691 13.4847 10.1464 13.4712 10.126 13.4561C10.0843 13.4251 10.0414 13.3894 9.99707 13.3506C9.95413 13.3881 9.91329 13.424 9.87305 13.4541ZM9.16699 4.08398C8.50757 4.08398 7.92931 4.08537 7.41797 4.09375V4.99902C7.41797 5.41324 7.08218 5.74902 6.66797 5.74902C6.25376 5.74902 5.91797 5.41324 5.91797 4.99902V4.16309C5.81113 4.1735 5.70841 4.18591 5.60938 4.19922C4.78483 4.31008 4.33242 4.51524 4.00684 4.84082C3.68126 5.1664 3.47609 5.61882 3.36524 6.44336C3.32039 6.77701 3.2931 7.15313 3.27637 7.58398H16.7236C16.7069 7.15313 16.6796 6.777 16.6348 6.44336C16.5239 5.61882 16.3187 5.1664 15.9932 4.84082C15.6676 4.51526 15.2152 4.31008 14.3906 4.19922C14.2925 4.18603 14.1908 4.17343 14.085 4.16309V4.99902C14.085 5.41313 13.749 5.74885 13.335 5.74902C12.9207 5.74902 12.585 5.41324 12.585 4.99902V4.09375C12.0729 4.08532 11.4937 4.08398 10.833 4.08398H9.16699Z" fill="white"/>
</svg>
