<svg width="16" height="16" viewBox="0 0 16 16" fill="none" xmlns="http://www.w3.org/2000/svg">
<path d="M8.46351 2.33398H7.53391C7.05751 2.33398 6.81931 2.33398 6.60569 2.40865C6.47524 2.45424 6.35266 2.51984 6.24236 2.6031C6.06174 2.73942 5.92961 2.93761 5.66536 3.33398C5.53003 3.537 5.33054 3.83623 5.25102 3.91979C5.054 4.12683 4.79566 4.26509 4.5141 4.31418C4.40047 4.33398 4.27848 4.33398 4.03449 4.33398C3.3811 4.33398 3.05442 4.33398 2.78729 4.4096C2.11907 4.59876 1.5968 5.12102 1.40764 5.78924C1.33203 6.05636 1.33203 6.38306 1.33203 7.03645V9.66732C1.33203 11.5529 1.33203 12.4957 1.91782 13.0815C2.5036 13.6673 3.44642 13.6673 5.33203 13.6673H10.6654C12.551 13.6673 13.4938 13.6673 14.0796 13.0815C14.6654 12.4957 14.6654 11.5529 14.6654 9.66732V7.03645C14.6654 6.38306 14.6654 6.05636 14.5898 5.78924C14.4006 5.12102 13.8783 4.59876 13.2101 4.4096C12.943 4.33398 12.6163 4.33398 11.9629 4.33398C11.7189 4.33398 11.5969 4.33398 11.4833 4.31418C11.2017 4.26509 10.9434 4.12683 10.7464 3.91979C10.6668 3.83622 10.4674 3.53699 10.332 3.33398C10.0678 2.93761 9.93564 2.73942 9.75504 2.6031C9.64471 2.51984 9.52218 2.45424 9.39171 2.40865C9.17811 2.33398 8.93991 2.33398 8.46351 2.33398Z" stroke="white" stroke-width="1.5" stroke-linecap="round" stroke-linejoin="round"/>
<path d="M10.6654 8.66667C10.6654 10.1394 9.47144 11.3333 7.99871 11.3333C6.52594 11.3333 5.33203 10.1394 5.33203 8.66667C5.33203 7.19393 6.52594 6 7.99871 6C9.47144 6 10.6654 7.19393 10.6654 8.66667Z" stroke="white" stroke-width="1.5" stroke-linecap="round" stroke-linejoin="round"/>
<path d="M12.75 6.33268H12.6667M12.8333 6.33268C12.8333 6.42473 12.7587 6.49935 12.6667 6.49935C12.5746 6.49935 12.5 6.42473 12.5 6.33268C12.5 6.24064 12.5746 6.16602 12.6667 6.16602C12.7587 6.16602 12.8333 6.24064 12.8333 6.33268Z" stroke="white" stroke-width="1.5" stroke-linecap="round" stroke-linejoin="round"/>
</svg>
