<svg width="16" height="16" viewBox="0 0 16 16" fill="none" xmlns="http://www.w3.org/2000/svg">
<path d="M1.33203 5.33333C1.33203 5.33333 4.3168 2 7.9987 2C11.6806 2 14.6654 5.33333 14.6654 5.33333" stroke="white" stroke-width="1.5" stroke-linecap="round" stroke-linejoin="round"/>
<path d="M14.3614 8.69602C14.564 8.98022 14.6654 9.12235 14.6654 9.33268C14.6654 9.54302 14.564 9.68515 14.3614 9.96935C13.4506 11.2464 11.1248 13.9993 7.9987 13.9993C4.87255 13.9993 2.54676 11.2464 1.63606 9.96935C1.43337 9.68515 1.33203 9.54302 1.33203 9.33268C1.33203 9.12235 1.43337 8.98022 1.63606 8.69602C2.54676 7.41895 4.87255 4.66602 7.9987 4.66602C11.1248 4.66602 13.4506 7.41895 14.3614 8.69602Z" stroke="white" stroke-width="1.5" stroke-linecap="round" stroke-linejoin="round"/>
<path d="M10 9.33398C10 8.22938 9.1046 7.33398 8 7.33398C6.8954 7.33398 6 8.22938 6 9.33398C6 10.4386 6.8954 11.334 8 11.334C9.1046 11.334 10 10.4386 10 9.33398Z" stroke="white" stroke-width="1.5" stroke-linecap="round" stroke-linejoin="round"/>
</svg>
