<svg width="20" height="20" viewBox="0 0 20 20" fill="none" xmlns="http://www.w3.org/2000/svg">
<path d="M2.5 9.99198V12.084C2.5 14.8338 2.5 16.2087 3.35427 17.0631C4.20854 17.9173 5.58347 17.9173 8.33333 17.9173H11.6667C14.4165 17.9173 15.7914 17.9173 16.6457 17.0631C17.5 16.2087 17.5 14.8338 17.5 12.084V9.99198C17.5 8.5909 17.5 7.89043 17.2034 7.28403C16.9068 6.67763 16.3539 6.24755 15.248 5.38741L13.5813 4.09111C11.8609 2.75303 11.0007 2.08398 10 2.08398C8.99925 2.08398 8.13908 2.75303 6.41868 4.09111L4.75201 5.38741C3.64611 6.24755 3.09316 6.67763 2.79658 7.28403C2.5 7.89043 2.5 8.5909 2.5 9.99198Z" stroke="white" stroke-width="1.5" stroke-linecap="round" stroke-linejoin="round"/>
<path d="M14.168 14.5833V11.25" stroke="white" stroke-width="1.5" stroke-linecap="round" stroke-linejoin="round"/>
</svg>
