<svg width="20" height="20" viewBox="0 0 20 20" fill="none" xmlns="http://www.w3.org/2000/svg">
<path d="M15.8333 7.49935V6.5145C15.8333 5.10347 15.8333 4.39795 15.6232 3.83447C15.2853 2.9286 14.5707 2.21406 13.6649 1.87618C13.1014 1.66602 12.3959 1.66602 10.9848 1.66602C8.5155 1.66602 7.28088 1.66602 6.29479 2.03381C4.70952 2.62508 3.45907 3.87553 2.86779 5.46081C2.5 6.4469 2.5 7.68156 2.5 10.1508V12.2721C2.5 14.8298 2.5 16.1088 3.16486 16.9969C3.35536 17.2514 3.58127 17.4773 3.83574 17.6678C4.72389 18.3327 6.0028 18.3327 8.56058 18.3327H9.16667C10.1415 18.3327 12.0833 18.3327 12.0833 18.3327" stroke="white" stroke-width="1.5" stroke-linecap="round" stroke-linejoin="round"/>
<path d="M9.16406 11.9444H9.86431C10.4156 11.9444 10.6912 11.9444 10.9128 12.0897C11.1343 12.2348 11.2576 12.4963 11.5041 13.0193L12.8307 15.8333L14.6641 10L15.9906 12.814C16.2372 13.337 16.3605 13.5985 16.582 13.7437C16.8036 13.8889 17.0791 13.8889 17.6305 13.8889H18.3307" stroke="white" stroke-width="1.5" stroke-linecap="round" stroke-linejoin="round"/>
<path d="M2.5 9.99935C2.5 8.46526 3.74365 7.22157 5.27777 7.22157H6.2037C6.63425 7.22157 6.84952 7.22157 7.02614 7.17425C7.50543 7.04582 7.8798 6.67145 8.00823 6.19216C8.05556 6.01553 8.05556 5.80026 8.05556 5.36971V4.44379C8.05556 2.90967 9.29925 1.66602 10.8333 1.66602" stroke="white" stroke-width="1.5" stroke-linecap="round" stroke-linejoin="round"/>
</svg>
