<svg width="20" height="20" viewBox="0 0 20 20" fill="none" xmlns="http://www.w3.org/2000/svg">
<path d="M17.7633 5.95181L17.3519 5.23798C17.0409 4.69812 16.8854 4.42819 16.6207 4.32055C16.356 4.21292 16.0567 4.29785 15.4581 4.46772L14.4413 4.75414C14.0591 4.84227 13.6581 4.79227 13.3092 4.61298L13.0284 4.451C12.7292 4.25934 12.499 3.97676 12.3716 3.6446L12.0934 2.81345C11.9104 2.26344 11.8189 1.98843 11.601 1.83113C11.3833 1.67383 11.0939 1.67383 10.5153 1.67383H9.58628C9.0077 1.67383 8.71836 1.67383 8.50053 1.83113C8.28274 1.98843 8.19125 2.26344 8.00827 2.81345L7.72997 3.6446C7.60257 3.97676 7.37241 4.25934 7.07317 4.451L6.79244 4.61298C6.44348 4.79227 6.04252 4.84227 5.66035 4.75414L4.64349 4.46772C4.04487 4.29785 3.74557 4.21292 3.48092 4.32055C3.21627 4.42819 3.06074 4.69812 2.74966 5.23798L2.33834 5.95181C2.04675 6.45785 1.90095 6.71088 1.92925 6.98023C1.95754 7.24958 2.15272 7.46664 2.54308 7.90075L3.40228 8.86132C3.61228 9.12715 3.76137 9.59049 3.76137 10.0071C3.76137 10.4238 3.61233 10.887 3.40231 11.1529L2.54308 12.1135C2.15272 12.5477 1.95755 12.7647 1.92925 13.0341C1.90095 13.3034 2.04675 13.5564 2.33834 14.0624L2.74965 14.7762C3.06072 15.3161 3.21627 15.5861 3.48092 15.6937C3.74557 15.8013 4.04488 15.7164 4.64351 15.5465L5.66031 15.2601C6.04256 15.1719 6.44359 15.222 6.79259 15.4013L7.07328 15.5633C7.37245 15.755 7.60256 16.0375 7.72995 16.3697L8.00827 17.2009C8.19125 17.7509 8.28274 18.0259 8.50053 18.1832C8.71836 18.3405 9.0077 18.3405 9.58628 18.3405H10.5153C11.0939 18.3405 11.3833 18.3405 11.601 18.1832C11.8189 18.0259 11.9104 17.7509 12.0934 17.2009L12.3717 16.3697C12.499 16.0375 12.7291 15.755 13.0284 15.5633L13.309 15.4013C13.658 15.222 14.059 15.1719 14.4413 15.2601L15.4581 15.5465C16.0567 15.7164 16.356 15.8013 16.6207 15.6937C16.8854 15.5861 17.0409 15.3161 17.3519 14.7762L17.7633 14.0624C18.0549 13.5564 18.2006 13.3034 18.1724 13.0341C18.144 12.7647 17.9489 12.5477 17.5585 12.1135L16.6993 11.1529C16.4893 10.887 16.3402 10.4238 16.3402 10.0071C16.3402 9.59049 16.4894 9.12715 16.6993 8.86132L17.5585 7.90075C17.9489 7.46664 18.144 7.24958 18.1724 6.98023C18.2006 6.71088 18.0549 6.45785 17.7633 5.95181Z" stroke="white" stroke-width="1.5" stroke-linecap="round" stroke-linejoin="round"/>
<path d="M12.931 10.0007C12.931 11.6115 11.6251 12.9173 10.0143 12.9173C8.40346 12.9173 7.09766 11.6115 7.09766 10.0007C7.09766 8.38982 8.40346 7.08398 10.0143 7.08398C11.6251 7.08398 12.931 8.38982 12.931 10.0007Z" stroke="white" stroke-width="1.5" stroke-linecap="round" stroke-linejoin="round"/>
</svg>
