<svg width="20" height="20" viewBox="0 0 20 20" fill="none" xmlns="http://www.w3.org/2000/svg">
<path d="M4.16406 8.33301V15.833" stroke="white" stroke-width="1.5" stroke-linecap="round" stroke-linejoin="round"/>
<path d="M4.83776 7.73458C4.52685 8.13397 4.3714 8.33366 4.16406 8.33366C3.95673 8.33366 3.80128 8.13397 3.49036 7.73459L2.86888 6.93626C1.97452 5.78742 1.52735 5.213 1.70097 4.74043C1.71866 4.69228 1.7404 4.64581 1.76593 4.60153C2.01656 4.16699 2.7324 4.16699 4.16406 4.16699C5.59573 4.16699 6.31156 4.16699 6.5622 4.60153C6.58773 4.64581 6.60946 4.69228 6.62715 4.74043C6.80078 5.213 6.3536 5.78742 5.45925 6.93626L4.83776 7.73458Z" stroke="white" stroke-width="1.5" stroke-linecap="round" stroke-linejoin="round"/>
<path d="M15.3594 7.5L10.3594 12.5M15.3594 12.5L10.3594 7.5" stroke="white" stroke-width="1.5" stroke-linecap="round" stroke-linejoin="round"/>
<path d="M10 15.833H10.8333" stroke="white" stroke-width="1.5" stroke-linecap="round" stroke-linejoin="round"/>
<path d="M6.66406 15.833H7.4974" stroke="white" stroke-width="1.5" stroke-linecap="round" stroke-linejoin="round"/>
<path d="M13.3359 15.833H14.1693" stroke="white" stroke-width="1.5" stroke-linecap="round" stroke-linejoin="round"/>
<path d="M16.6641 15.833H17.4974" stroke="white" stroke-width="1.5" stroke-linecap="round" stroke-linejoin="round"/>
</svg>
