<svg width="16" height="16" viewBox="0 0 16 16" fill="none" xmlns="http://www.w3.org/2000/svg">
<g clip-path="url(#clip0_12093_1088)">
<path d="M9.15434 2.29677L10.3275 4.66257C10.4875 4.9919 10.9141 5.30778 11.2741 5.36827L13.4005 5.72448C14.7604 5.953 15.0804 6.94772 14.1005 7.92898L12.4473 9.59578C12.1673 9.87805 12.0141 10.4224 12.1007 10.8123L12.574 12.8756C12.9473 14.5088 12.0873 15.1406 10.6542 14.287L8.66107 13.0974C8.30114 12.8824 7.70787 12.8824 7.3412 13.0974L5.34812 14.287C3.9216 15.1406 3.05504 14.5021 3.42833 12.8756L3.90161 10.8123C3.98826 10.4224 3.83495 9.87805 3.55498 9.59578L1.90183 7.92898C0.928604 6.94772 1.2419 5.953 2.60175 5.72448L4.72818 5.36827C5.08148 5.30778 5.5081 4.9919 5.66808 4.66257L6.84127 2.29677C7.4812 1.01306 8.52107 1.01306 9.15434 2.29677Z" stroke="white" stroke-width="1.5" stroke-linecap="round" stroke-linejoin="round"/>
</g>
<defs>
<clipPath id="clip0_12093_1088">
<rect width="16" height="16" fill="white"/>
</clipPath>
</defs>
</svg>
