<svg width="20" height="20" viewBox="0 0 20 20" fill="none" xmlns="http://www.w3.org/2000/svg">
<path d="M9.99902 2.16602C12.7143 2.16619 14.915 4.36772 14.915 7.08301C14.9149 8.7585 14.0757 10.2365 12.7959 11.124C15.0322 12.176 16.5809 14.4482 16.5811 17.083C16.5811 17.4971 16.2451 17.8328 15.8311 17.833C15.4168 17.833 15.0811 17.4972 15.0811 17.083C15.0809 14.2757 12.8044 12 9.99707 12C7.18988 12.0002 4.91424 14.2758 4.91406 17.083C4.91406 17.4972 4.57828 17.833 4.16406 17.833C3.74985 17.833 3.41406 17.4972 3.41406 17.083C3.41419 14.4479 4.96271 12.1748 7.19922 11.123C5.92035 10.2354 5.08214 8.7576 5.08203 7.08301C5.08203 4.36761 7.28363 2.16602 9.99902 2.16602ZM9.99902 3.66602C8.11205 3.66602 6.58203 5.19604 6.58203 7.08301C6.58221 8.96981 8.11216 10.499 9.99902 10.499C11.8857 10.4988 13.4149 8.9697 13.415 7.08301C13.415 5.19615 11.8858 3.66619 9.99902 3.66602Z" fill="white"/>
</svg>
