<svg width="114" height="42" viewBox="0 0 114 42" fill="none" xmlns="http://www.w3.org/2000/svg">
<path d="M11.1176 14.4609H3.5V34.9838H11.1176V14.4609Z" fill="#1DAA65"/>
<path d="M29.5442 34.9843H22.0707V17.4502C22.0707 15.7963 20.7201 14.4455 19.0546 14.4455H11.1113V7H19.0546C24.8359 7 29.5442 11.6853 29.5442 17.4502V34.9843Z" fill="#1DAA65"/>
<path d="M47.8606 34.9843H40.3871V17.4502C40.3871 15.7963 39.0365 14.4455 37.371 14.4455H29.4277V7H37.371C43.1523 7 47.8606 11.6853 47.8606 17.4502V34.9843Z" fill="#1DAA65"/>
<path d="M60.6958 14.4609H53.0781V34.9838H60.6958V14.4609Z" fill="#257CFF"/>
<path d="M79.1223 34.9843H71.6488V17.4502C71.6488 15.7963 70.2983 14.4455 68.6327 14.4455H60.6895V7H68.6327C74.414 7 79.1223 11.6853 79.1223 17.4502V34.9843Z" fill="#257CFF"/>
<path d="M97.4387 34.9843H89.9652V17.4502C89.9652 15.7963 88.6147 14.4455 86.9491 14.4455H79.0059V7H86.9491C92.7304 7 97.4387 11.6853 97.4387 17.4502V34.9843Z" fill="#257CFF"/>
<path d="M101.758 26.6191H105.628C107.763 26.6191 109.493 28.3422 109.493 30.4695V34.3252H101.758V26.6191Z" fill="#E52525"/>
</svg>
