<svg width="320" height="43" viewBox="0 0 320 43" fill="none" xmlns="http://www.w3.org/2000/svg">
<g clip-path="url(#clip0_11931_1970)">
<g clip-path="url(#clip1_11931_1970)">
<path d="M63.7359 42.5181C60.7892 42.5181 58.1628 41.88 55.8567 40.6089C53.5506 39.3325 51.7356 37.5988 50.4224 35.3971C49.1039 33.1954 48.4473 30.6852 48.4473 27.8665C48.4473 25.0479 49.0932 22.5962 50.3957 20.3945C51.6929 18.1928 53.4652 16.4537 55.7179 15.1827C57.9653 13.9063 60.485 13.2734 63.2769 13.2734C65.9139 13.2734 68.2788 13.8744 70.3714 15.071C72.4639 16.2676 74.0921 17.9268 75.2558 20.0541C76.4196 22.1761 77.0014 24.5905 77.0014 27.2922C77.0014 27.7921 76.9801 28.3079 76.9427 28.8291C76.9053 29.3503 76.8039 29.9194 76.6544 30.5363L52.9901 30.5948V24.9203L73.1099 24.8618L69.971 27.239C69.9336 25.5797 69.64 24.1864 69.1009 23.0695C68.5564 21.9527 67.8037 21.1018 66.8321 20.5221C65.8606 19.9424 64.6595 19.6553 63.2288 19.6553C61.7181 19.6553 60.3996 19.985 59.2732 20.6391C58.1468 21.2986 57.2874 22.2346 56.6841 23.4471C56.0809 24.665 55.782 26.1009 55.782 27.7602C55.782 29.4194 56.1023 30.9351 56.7429 32.1902C57.3835 33.4453 58.3016 34.4026 59.5027 35.0567C60.7038 35.7162 62.0971 36.0406 63.6879 36.0406C65.1239 36.0406 66.4211 35.8066 67.5848 35.3439C68.7485 34.8812 69.7575 34.1473 70.6062 33.1422L75.1437 37.6626C73.7078 39.2847 72.0209 40.5025 70.0831 41.3109C68.1453 42.1193 66.0314 42.5288 63.7466 42.5288L63.7359 42.5181Z" fill="#1DAA65"/>
<path d="M95.1891 42.5181C92.2424 42.5181 89.616 41.88 87.3099 40.6089C85.0037 39.3325 83.1887 37.5988 81.8755 35.3971C80.557 33.1954 79.9004 30.6852 79.9004 27.8665C79.9004 25.0479 80.5463 22.5962 81.8488 20.3945C83.146 18.1928 84.9183 16.4537 87.1711 15.1827C89.4185 13.9063 91.9381 13.2734 94.73 13.2734C97.3671 13.2734 99.7319 13.8744 101.824 15.071C103.917 16.2676 105.545 17.9268 106.709 20.0541C107.873 22.1761 108.455 24.5905 108.455 27.2922C108.455 27.7921 108.433 28.3079 108.396 28.8291C108.358 29.3503 108.257 29.9194 108.108 30.5363L84.4432 30.5948V24.9203L104.563 24.8618L101.424 27.239C101.387 25.5797 101.093 24.1864 100.554 23.0695C100.009 21.9527 99.2568 21.1018 98.2852 20.5221C97.3137 19.9424 96.1126 19.6553 94.6819 19.6553C93.1712 19.6553 91.8527 19.985 90.7263 20.6391C89.5999 21.2986 88.7405 22.2346 88.1373 23.4471C87.5341 24.665 87.2351 26.1009 87.2351 27.7602C87.2351 29.4194 87.5554 30.9351 88.196 32.1902C88.8366 33.4453 89.7548 34.4026 90.9559 35.0567C92.157 35.7162 93.5502 36.0406 95.141 36.0406C96.577 36.0406 97.8742 35.8066 99.0379 35.3439C100.202 34.8812 101.211 34.1473 102.059 33.1422L106.597 37.6626C105.161 39.2847 103.474 40.5025 101.536 41.3109C99.5984 42.1193 97.4845 42.5288 95.1997 42.5288L95.1891 42.5181Z" fill="#1DAA65"/>
<path d="M110.137 20.565V13.9013H130.892V20.565H110.137ZM116.703 41.8803V2.25977H120.637C122.671 2.25977 124.32 3.90308 124.32 5.92931V41.8803H116.703Z" fill="#1DAA65"/>
<path d="M197.431 42.5181C194.485 42.5181 191.858 41.88 189.552 40.6089C187.246 39.3325 185.431 37.5988 184.118 35.3971C182.799 33.1954 182.143 30.6852 182.143 27.8665C182.143 25.0479 182.789 22.5962 184.091 20.3945C185.388 18.1928 187.161 16.4537 189.413 15.1827C191.661 13.9063 194.18 13.2734 196.972 13.2734C199.609 13.2734 201.974 13.8744 204.067 15.071C206.159 16.2676 207.787 17.9268 208.951 20.0541C210.115 22.1761 210.697 24.5905 210.697 27.2922C210.697 27.7921 210.675 28.3079 210.638 28.8291C210.601 29.3503 210.499 29.9194 210.35 30.5363L186.685 30.5948V24.9203L206.805 24.8618L203.666 27.239C203.629 25.5797 203.335 24.1864 202.796 23.0695C202.252 21.9527 201.499 21.1018 200.527 20.5221C199.556 19.9424 198.355 19.6553 196.924 19.6553C195.413 19.6553 194.095 19.985 192.968 20.6391C191.842 21.2986 190.983 22.2346 190.379 23.4471C189.776 24.665 189.477 26.1009 189.477 27.7602C189.477 29.4194 189.798 30.9351 190.438 32.1902C191.079 33.4453 191.997 34.4026 193.198 35.0567C194.399 35.7162 195.792 36.0406 197.383 36.0406C198.819 36.0406 200.116 35.8066 201.28 35.3439C202.444 34.8812 203.453 34.1473 204.302 33.1422L208.839 37.6626C207.403 39.2847 205.716 40.5025 203.778 41.3109C201.841 42.1193 199.727 42.5288 197.442 42.5288L197.431 42.5181Z" fill="#257CFF"/>
<path d="M227.256 42.4604C224.656 42.4604 222.344 41.8222 220.305 40.5512C218.271 39.2748 216.654 37.5411 215.453 35.3393C214.252 33.1376 213.648 30.6647 213.648 27.9258C213.648 25.1869 214.246 22.6555 215.453 20.4537C216.654 18.252 218.271 16.513 220.305 15.2419C222.339 13.9656 224.656 13.3327 227.256 13.3327C229.268 13.3327 231.094 13.7475 232.722 14.5771C234.35 15.4068 235.658 16.5396 236.646 17.9648C237.633 19.3954 238.167 21.0175 238.247 22.831V32.7919C238.167 34.648 237.644 36.3073 236.678 37.7751C235.706 39.2429 234.409 40.3916 232.781 41.2213C231.152 42.0509 229.311 42.4657 227.256 42.4657V42.4604ZM228.595 35.451C229.989 35.451 231.233 35.1213 232.316 34.4672C233.4 33.813 234.243 32.9249 234.847 31.8027C235.444 30.6806 235.749 29.3883 235.749 27.9205C235.749 26.4527 235.45 25.1018 234.847 23.9797C234.243 22.8576 233.411 21.9747 232.348 21.3153C231.281 20.6612 230.053 20.3314 228.654 20.3314C227.256 20.3314 225.969 20.6505 224.901 21.2887C223.834 21.9269 223.001 22.815 222.403 23.9531C221.8 25.0912 221.501 26.3942 221.501 27.862C221.501 29.3298 221.8 30.6912 222.403 31.8293C223.001 32.9674 223.844 33.8556 224.933 34.4938C226.017 35.1319 227.24 35.451 228.595 35.451ZM242.955 41.8807H235.279V34.3502L236.56 27.5163L235.226 20.7409V0H239.251C241.3 0 242.961 1.65396 242.961 3.69614V41.8807H242.955Z" fill="#257CFF"/>
<path d="M249.527 41.8813V11.541H257.262V41.8759H249.527V41.8813Z" fill="#257CFF"/>
<path d="M277.202 42.5196C274.372 42.5196 271.815 41.8761 269.525 40.5784C267.235 39.2861 265.436 37.5258 264.118 35.3081C262.799 33.0904 262.143 30.6281 262.143 27.9211C262.143 25.2142 262.799 22.6402 264.118 20.4225C265.436 18.2048 267.235 16.4551 269.525 15.1788C271.81 13.9024 274.388 13.2695 277.26 13.2695C279.47 13.2695 281.504 13.6684 283.367 14.4555C285.23 15.2479 286.859 16.4179 288.252 17.9602L283.25 22.9433C282.551 22.0924 281.691 21.4595 280.661 21.0341C279.636 20.6086 278.499 20.3959 277.26 20.3959C275.867 20.3959 274.613 20.715 273.508 21.3532C272.403 21.9914 271.538 22.8689 270.919 23.991C270.299 25.1131 269.99 26.4054 269.99 27.8733C269.99 29.3411 270.299 30.6334 270.919 31.7555C271.538 32.8777 272.403 33.7658 273.508 34.42C274.613 35.0794 275.862 35.4038 277.26 35.4038C278.542 35.4038 279.684 35.1805 280.693 34.739C281.702 34.2976 282.593 33.6488 283.367 32.7979L288.252 37.7225C286.896 39.2701 285.278 40.4561 283.399 41.2857C281.52 42.1154 279.454 42.5302 277.207 42.5302L277.202 42.5196Z" fill="#257CFF"/>
<path d="M305.055 42.5196C302.226 42.5196 299.674 41.8761 297.411 40.5784C295.142 39.2861 293.348 37.5258 292.03 35.3081C290.711 33.0904 290.055 30.5855 290.055 27.8095C290.055 25.0334 290.711 22.6083 292.03 20.4225C293.348 18.242 295.142 16.503 297.411 15.2107C299.68 13.9183 302.226 13.2695 305.055 13.2695C307.884 13.2695 310.489 13.9077 312.758 15.1788C315.027 16.4498 316.826 18.1889 318.166 20.3906C319.5 22.5923 320.173 25.0653 320.173 27.8041C320.173 30.543 319.511 33.0372 318.198 35.2762C316.879 37.5151 315.075 39.2808 312.79 40.5784C310.5 41.8707 307.927 42.5196 305.055 42.5196ZM305.055 35.3932C306.491 35.3932 307.756 35.0635 308.861 34.4093C309.966 33.7552 310.82 32.867 311.418 31.7449C312.016 30.6228 312.32 29.3305 312.32 27.8626C312.32 26.3948 312 25.1025 311.36 23.9804C310.719 22.8582 309.865 21.9807 308.803 21.3425C307.735 20.7044 306.486 20.3853 305.05 20.3853C303.614 20.3853 302.413 20.7044 301.329 21.3425C300.245 21.9807 299.402 22.8582 298.799 23.9804C298.195 25.1025 297.897 26.3948 297.897 27.8626C297.897 29.3305 298.195 30.6228 298.799 31.7449C299.397 32.867 300.245 33.7552 301.329 34.4093C302.413 35.0688 303.656 35.3932 305.05 35.3932H305.055Z" fill="#257CFF"/>
<path d="M7.51413 21.3574H-0.103516V41.8803H7.51413V21.3574Z" fill="#1DAA65"/>
<path d="M25.9407 41.8808H18.4672V24.3467C18.4672 22.6928 17.1166 21.3419 15.4511 21.3419H7.50781V13.8965H15.4511C21.2324 13.8965 25.9407 18.5818 25.9407 24.3467V41.8808Z" fill="#1DAA65"/>
<path d="M44.2571 41.8808H36.7836V24.3467C36.7836 22.6928 35.433 21.3419 33.7675 21.3419H25.8242V13.8965H33.7675C39.5488 13.8965 44.2571 18.5818 44.2571 24.3467V41.8808Z" fill="#1DAA65"/>
<path d="M141.711 21.3574H134.094V41.8803H141.711V21.3574Z" fill="#257CFF"/>
<path d="M160.138 41.8808H152.664V24.3467C152.664 22.6928 151.314 21.3419 149.648 21.3419H141.705V13.8965H149.648C155.43 13.8965 160.138 18.5818 160.138 24.3467V41.8808Z" fill="#257CFF"/>
<path d="M178.454 41.8808H170.981V24.3467C170.981 22.6928 169.63 21.3419 167.965 21.3419H160.021V13.8965H167.965C173.746 13.8965 178.454 18.5818 178.454 24.3467V41.8808Z" fill="#257CFF"/>
<path d="M249.527 0H253.398C255.533 0 257.262 1.72309 257.262 3.85037V7.70605H249.527V0Z" fill="#E52525"/>
</g>
</g>
<defs>
<clipPath id="clip0_11931_1970">
<rect width="320" height="42.5189" fill="white"/>
</clipPath>
<clipPath id="clip1_11931_1970">
<rect width="320.272" height="42.5189" fill="white" transform="translate(-0.103516)"/>
</clipPath>
</defs>
</svg>
